<svg width="400" height="120" viewBox="0 0 400 120" fill="none" xmlns="http://www.w3.org/2000/svg">
  <defs>
    <linearGradient id="ti" x1="0%" y1="0%" x2="100%" y2="100%">
      <stop offset="0%" stop-color="#6A7A8A"/>
      <stop offset="25%" stop-color="#B0C0D8"/>
      <stop offset="50%" stop-color="#E8F0F8"/>
      <stop offset="75%" stop-color="#8A9AB0"/>
      <stop offset="100%" stop-color="#5A6A7A"/>
    </linearGradient>
  </defs>

  <!-- M Constellation Icon -->
  <!-- Lines -->
  <line x1="12" y1="12" x2="12" y2="88" stroke="url(#ti)" stroke-width="1.2" opacity="0.5"/>
  <line x1="96" y1="12" x2="96" y2="88" stroke="url(#ti)" stroke-width="1.2" opacity="0.5"/>
  <line x1="12" y1="12" x2="54" y2="12" stroke="url(#ti)" stroke-width="1" opacity="0.42"/>
  <line x1="54" y1="12" x2="96" y2="12" stroke="url(#ti)" stroke-width="1" opacity="0.42"/>
  <line x1="12" y1="50" x2="34" y2="50" stroke="url(#ti)" stroke-width="1" opacity="0.32"/>
  <line x1="34" y1="50" x2="54" y2="12" stroke="url(#ti)" stroke-width="1" opacity="0.32"/>
  <line x1="54" y1="12" x2="74" y2="50" stroke="url(#ti)" stroke-width="1" opacity="0.32"/>
  <line x1="74" y1="50" x2="96" y2="50" stroke="url(#ti)" stroke-width="1" opacity="0.32"/>
  <line x1="12" y1="88" x2="4" y2="108" stroke="url(#ti)" stroke-width="0.8" opacity="0.2"/>
  <line x1="12" y1="88" x2="20" y2="108" stroke="url(#ti)" stroke-width="0.8" opacity="0.2"/>
  <line x1="96" y1="88" x2="88" y2="108" stroke="url(#ti)" stroke-width="0.8" opacity="0.2"/>
  <line x1="96" y1="88" x2="104" y2="108" stroke="url(#ti)" stroke-width="0.8" opacity="0.2"/>

  <!-- Nodes -->
  <circle cx="12" cy="12" r="6" fill="url(#ti)"/>
  <circle cx="54" cy="12" r="9" fill="url(#ti)"/>
  <circle cx="96" cy="12" r="6" fill="url(#ti)"/>
  <circle cx="12" cy="50" r="4" fill="url(#ti)" opacity="0.85"/>
  <circle cx="34" cy="50" r="3.5" fill="url(#ti)" opacity="0.75"/>
  <circle cx="74" cy="50" r="3.5" fill="url(#ti)" opacity="0.75"/>
  <circle cx="96" cy="50" r="4" fill="url(#ti)" opacity="0.85"/>
  <circle cx="12" cy="88" r="3.5" fill="url(#ti)" opacity="0.6"/>
  <circle cx="96" cy="88" r="3.5" fill="url(#ti)" opacity="0.6"/>
  <circle cx="4" cy="108" r="2.5" fill="url(#ti)" opacity="0.35"/>
  <circle cx="20" cy="108" r="2.5" fill="url(#ti)" opacity="0.35"/>
  <circle cx="88" cy="108" r="2.5" fill="url(#ti)" opacity="0.35"/>
  <circle cx="104" cy="108" r="2.5" fill="url(#ti)" opacity="0.35"/>

  <!-- Wordmark -->
  <text x="130" y="72" font-family="'Syne', 'Arial Black', sans-serif" font-weight="800" font-size="52" letter-spacing="-1" fill="url(#ti)">MITTIVA</text>
</svg>
