<svg width="400" height="120" viewBox="0 0 400 120" fill="none" xmlns="http://www.w3.org/2000/svg">
  <defs>
    <linearGradient id="ti-dark" x1="0%" y1="0%" x2="100%" y2="100%">
      <stop offset="0%" stop-color="#2A3A4A"/>
      <stop offset="30%" stop-color="#4A6A8A"/>
      <stop offset="60%" stop-color="#3A5070"/>
      <stop offset="100%" stop-color="#1A2A3A"/>
    </linearGradient>
  </defs>

  <!-- M Constellation Icon -->
  <line x1="12" y1="12" x2="12" y2="88" stroke="url(#ti-dark)" stroke-width="1.2" opacity="0.35"/>
  <line x1="96" y1="12" x2="96" y2="88" stroke="url(#ti-dark)" stroke-width="1.2" opacity="0.35"/>
  <line x1="12" y1="12" x2="54" y2="12" stroke="url(#ti-dark)" stroke-width="1" opacity="0.28"/>
  <line x1="54" y1="12" x2="96" y2="12" stroke="url(#ti-dark)" stroke-width="1" opacity="0.28"/>
  <line x1="12" y1="50" x2="34" y2="50" stroke="url(#ti-dark)" stroke-width="1" opacity="0.22"/>
  <line x1="34" y1="50" x2="54" y2="12" stroke="url(#ti-dark)" stroke-width="1" opacity="0.22"/>
  <line x1="54" y1="12" x2="74" y2="50" stroke="url(#ti-dark)" stroke-width="1" opacity="0.22"/>
  <line x1="74" y1="50" x2="96" y2="50" stroke="url(#ti-dark)" stroke-width="1" opacity="0.22"/>
  <line x1="12" y1="88" x2="4" y2="108" stroke="url(#ti-dark)" stroke-width="0.8" opacity="0.12"/>
  <line x1="12" y1="88" x2="20" y2="108" stroke="url(#ti-dark)" stroke-width="0.8" opacity="0.12"/>
  <line x1="96" y1="88" x2="88" y2="108" stroke="url(#ti-dark)" stroke-width="0.8" opacity="0.12"/>
  <line x1="96" y1="88" x2="104" y2="108" stroke="url(#ti-dark)" stroke-width="0.8" opacity="0.12"/>

  <circle cx="12" cy="12" r="6" fill="url(#ti-dark)"/>
  <circle cx="54" cy="12" r="9" fill="url(#ti-dark)"/>
  <circle cx="96" cy="12" r="6" fill="url(#ti-dark)"/>
  <circle cx="12" cy="50" r="4" fill="url(#ti-dark)" opacity="0.8"/>
  <circle cx="34" cy="50" r="3.5" fill="url(#ti-dark)" opacity="0.7"/>
  <circle cx="74" cy="50" r="3.5" fill="url(#ti-dark)" opacity="0.7"/>
  <circle cx="96" cy="50" r="4" fill="url(#ti-dark)" opacity="0.8"/>
  <circle cx="12" cy="88" r="3.5" fill="url(#ti-dark)" opacity="0.55"/>
  <circle cx="96" cy="88" r="3.5" fill="url(#ti-dark)" opacity="0.55"/>
  <circle cx="4" cy="108" r="2.5" fill="url(#ti-dark)" opacity="0.28"/>
  <circle cx="20" cy="108" r="2.5" fill="url(#ti-dark)" opacity="0.28"/>
  <circle cx="88" cy="108" r="2.5" fill="url(#ti-dark)" opacity="0.28"/>
  <circle cx="104" cy="108" r="2.5" fill="url(#ti-dark)" opacity="0.28"/>

  <text x="130" y="72" font-family="'Syne', 'Arial Black', sans-serif" font-weight="800" font-size="52" letter-spacing="-1" fill="url(#ti-dark)">MITTIVA</text>
</svg>
